<svg version="1.1" id="Слой_1" xmlns="http://www.w3.org/2000/svg" xmlns:xlink="http://www.w3.org/1999/xlink" x="0px" y="0px"
	 viewBox="0 0 100 100" style="enable-background:new 0 0 100 100;" xml:space="preserve">
<title>68 all</title>
<path class="st0" d="M50,49.8c5.2,0,9.5-4.3,9.5-9.5s-4.3-9.5-9.5-9.5s-9.5,4.3-9.5,9.5C40.5,45.5,44.8,49.7,50,49.8z M50,32.8
	c4.1,0,7.5,3.4,7.5,7.5s-3.4,7.5-7.5,7.5s-7.5-3.4-7.5-7.5C42.5,36.1,45.9,32.8,50,32.8z"/>
<path class="st0" d="M36,69.3c0.6,0,1-0.4,1-1v-2c0-5,4-9,9-9h8c5,0,9,4,9,9v2c0,0.6,0.4,1,1,1s1-0.4,1-1v-2c0-6.1-4.9-11-11-11h-8
	c-6.1,0-11,4.9-11,11v2C35,68.8,35.4,69.3,36,69.3z"/>
<path class="st0" d="M14.4,29c4.4,0,8-3.6,8-8c0-4.4-3.6-8-8-8s-8,3.6-8,8c0,2.1,0.8,4.2,2.3,5.7C10.2,28.2,12.3,29,14.4,29z
	 M10.2,16.8c2.3-2.3,6.1-2.3,8.5,0s2.3,6.1,0,8.5c-2.3,2.3-6.1,2.3-8.5,0C7.8,22.9,7.8,19.1,10.2,16.8
	C10.2,16.8,10.2,16.8,10.2,16.8z"/>
<path class="st0" d="M85.6,26c4.4,0,8-3.6,8-8s-3.6-8-8-8s-8,3.6-8,8c0,2.1,0.8,4.2,2.3,5.7C81.4,25.2,83.5,26,85.6,26z M81.3,13.8
	c2.3-2.3,6.1-2.3,8.5,0s2.3,6.1,0,8.5c-2.3,2.3-6.1,2.3-8.5,0C79,19.9,79,16.1,81.3,13.8C81.3,13.8,81.3,13.8,81.3,13.8z"/>
<path class="st0" d="M5,51h14c0.5,16.3,13.7,29.5,30,30v13.7c0,0.6,0.4,1,1,1s1-0.4,1-1V81c16.3-0.5,29.5-13.7,30-30h14
	c0.6,0,1-0.4,1-1s-0.4-1-1-1H81c-0.5-16.3-13.7-29.5-30-30V5.3c0-0.6-0.4-1-1-1s-1,0.4-1,1V19c-16.3,0.5-29.5,13.7-30,30H5
	c-0.6,0-1,0.4-1,1S4.4,51,5,51z M50,21c16,0,29,13,29,29S66,79,50,79S21,66,21,50S34,21,50,21z"/>
<path class="st0" d="M14.4,90c4.4,0,8-3.6,8-8c0-4.4-3.6-8-8-8c-4.4,0-8,3.6-8,8c0,2.1,0.8,4.2,2.3,5.7C10.2,89.2,12.3,90,14.4,90z
	 M10.2,77.8c2.3-2.3,6.1-2.3,8.5,0c2.3,2.3,2.3,6.1,0,8.5c-2.3,2.3-6.1,2.3-8.5,0C7.8,83.9,7.8,80.1,10.2,77.8
	C10.2,77.8,10.2,77.8,10.2,77.8z"/>
<path class="st0" d="M85.6,87c4.4,0,8-3.6,8-8c0-4.4-3.6-8-8-8c-4.4,0-8,3.6-8,8c0,2.1,0.8,4.2,2.3,5.7C81.4,86.2,83.5,87,85.6,87z
	 M81.3,74.8c2.3-2.3,6.1-2.3,8.5,0c2.3,2.3,2.3,6.1,0,8.5c-2.3,2.3-6.1,2.3-8.5,0C79,80.9,79,77.1,81.3,74.8
	C81.3,74.8,81.3,74.8,81.3,74.8z"/>
</svg>
