<svg version="1.1" id="Слой_1" xmlns="http://www.w3.org/2000/svg" xmlns:xlink="http://www.w3.org/1999/xlink" x="0px" y="0px"
	 viewBox="0 0 100 100" style="enable-background:new 0 0 100 100;" xml:space="preserve">

<path class="st0" d="M84.5,26.4H62.6l3.5-3.5c1.3-1.3,1.3-3.3,0-4.5L61,13.3c-0.6-0.6-1.4-0.9-2.3-0.9c-0.9,0-1.7,0.3-2.3,0.9
	l-6.3,6.3l-6.3-6.3c-0.6-0.6-1.4-0.9-2.3-0.9c-0.9,0-1.7,0.3-2.3,0.9l-5.1,5.1c-1.3,1.3-1.3,3.3,0,4.5l3.5,3.5H15.5
	c-1.8,0-3.2,1.4-3.2,3.2v7.3c0,1.7,1.3,3.1,3,3.2v45.5c0,1.8,1.4,3.2,3.2,3.2h25.6h12.1h25.3c1.8,0,3.2-1.4,3.2-3.2V40.1
	c1.7-0.1,3-1.5,3-3.2v-7.3C87.7,27.8,86.3,26.4,84.5,26.4z M35.2,21.8c-0.7-0.7-0.7-1.8,0-2.4l5.1-5.1c0.3-0.3,0.8-0.5,1.2-0.5
	c0.5,0,0.9,0.2,1.2,0.5l6.8,6.8c0.3,0.3,0.8,0.3,1,0l6.8-6.8c0.3-0.3,0.8-0.5,1.2-0.5c0.5,0,0.9,0.2,1.2,0.5l5.1,5.1
	c0.7,0.7,0.7,1.8,0,2.4l-4.6,4.6H39.8L35.2,21.8z M16.8,85.6V40.1h26.6v47.2H18.5C17.6,87.3,16.8,86.5,16.8,85.6z M44.8,87.3V40.1
	h10.6v47.2H44.8z M83.2,85.6c0,1-0.8,1.7-1.7,1.7H56.9V40.1h26.3V85.6z M86.2,36.9c0,1-0.8,1.7-1.7,1.7H84H56.2H44.1H16h-0.5
	c-1,0-1.7-0.8-1.7-1.7v-7.3c0-1,0.8-1.7,1.7-1.7h23.9h21.3h23.7c1,0,1.7,0.8,1.7,1.7L86.2,36.9L86.2,36.9z"/>
</svg>
