<svg version="1.1" id="Слой_1" xmlns="http://www.w3.org/2000/svg" xmlns:xlink="http://www.w3.org/1999/xlink" x="0px" y="0px"
	 viewBox="0 0 90 112.5" style="enable-background:new 0 0 90 112.5;" xml:space="preserve">
<g>
	<path class="st0" d="M47.6,47.4c-0.6-0.3-1.3-0.6-2-0.8s-1.4-0.4-2-0.7s-1.1-0.6-1.5-1s-0.6-1-0.6-1.7c0-0.5,0.1-0.9,0.3-1.3
		c0.2-0.4,0.5-0.7,0.8-0.9s0.7-0.4,1.1-0.5c0.4-0.1,0.8-0.2,1.3-0.2c1.4,0,2.4,0.5,3.1,1.6l1.4-1.1c-0.6-0.7-1.3-1.2-2.1-1.5
		c-0.6-0.2-1.1-0.3-1.8-0.4V37h-1.8v1.9c-0.3,0-0.6,0.1-0.8,0.2c-0.6,0.2-1.2,0.5-1.7,0.8c-0.5,0.4-0.9,0.9-1.2,1.4
		c-0.3,0.6-0.4,1.3-0.4,2s0.1,1.4,0.4,1.9c0.2,0.5,0.5,0.9,0.9,1.2s0.8,0.6,1.3,0.8s1,0.4,1.5,0.6c0.5,0.2,1,0.3,1.5,0.5
		s0.9,0.4,1.3,0.6c0.4,0.3,0.7,0.6,0.9,0.9c0.2,0.4,0.4,0.8,0.4,1.4c0,0.5-0.1,0.9-0.3,1.3c-0.2,0.4-0.5,0.7-0.8,0.9
		c-0.3,0.3-0.7,0.4-1.1,0.6c-0.4,0.1-0.8,0.2-1.2,0.2c-0.8,0-1.6-0.2-2.2-0.5c-0.6-0.4-1.1-0.8-1.5-1.4l-1.5,1.1
		c0.6,0.8,1.4,1.5,2.3,1.8c0.7,0.3,1.4,0.5,2.2,0.5v1.8h1.8v-1.9c0.2-0.1,0.5-0.1,0.7-0.2c0.6-0.2,1.2-0.5,1.7-0.9s0.9-0.9,1.2-1.5
		s0.5-1.2,0.5-2c0-1-0.2-1.7-0.6-2.3C48.7,48.2,48.2,47.8,47.6,47.4z"/>
	<path class="st0" d="M81,29H49.7h-9.4H9c-0.5,0-1,0.4-1,1v35c0,0.5,0.4,1,1,1h31.3h9.4H81c0.5,0,1-0.4,1-1V30
		C82,29.4,81.6,29,81,29z M9.8,64.2V30.8h26.1C30,34,26,40.3,26,47.5s4,13.5,9.9,16.7H9.8z M49.5,64.2h-8.9
		c-7.4-2-12.9-8.7-12.9-16.7s5.5-14.8,12.9-16.7h8.9c7.4,2,12.9,8.7,12.9,16.7C62.3,55.5,56.9,62.3,49.5,64.2z M80.2,64.2h-26
		c5.9-3.2,9.9-9.5,9.9-16.7s-4-13.5-9.9-16.7h26.1L80.2,64.2L80.2,64.2z"/>
</g>
</svg>
