
<!-- Generator: Adobe Illustrator 21.1.0, SVG Export Plug-In . SVG Version: 6.00 Build 0)  -->
<svg version="1.1"
	 id="Слой_1" xmlns:cc="http://creativecommons.org/ns#" xmlns:dc="http://purl.org/dc/elements/1.1/" xmlns:inkscape="http://www.inkscape.org/namespaces/inkscape" xmlns:rdf="http://www.w3.org/1999/02/22-rdf-syntax-ns#" xmlns:sodipodi="http://sodipodi.sourceforge.net/DTD/sodipodi-0.dtd" xmlns:svg="http://www.w3.org/2000/svg"
	 xmlns="http://www.w3.org/2000/svg" xmlns:xlink="http://www.w3.org/1999/xlink" x="0px" y="0px" viewBox="0 0 128 130" fill='#0fc8c8'
	 style="enable-background:new 0 0 128 130;" xml:space="preserve">
<path d="M109,30.7c-0.1,0-0.1,0-0.2,0l-90,30.5c-0.3,0.1-0.5,0.4-0.5,0.7s0.2,0.6,0.5,0.7L42,70.1l4.4,26.7c0,0.3,0.3,0.6,0.7,0.6
	c0.3,0,0.6-0.2,0.7-0.5l0-0.1l18.9-18.1l15.6,5.3c0.3,0.1,0.7-0.1,0.9-0.4l26.5-51.8c0.1-0.2,0.1-0.6-0.1-0.8
	C109.4,30.8,109.2,30.7,109,30.7z M105.1,33.5L42.8,68.8l-21.4-7L105.1,33.5z M106.7,34.2L82.2,82.3L54.7,73L106.7,34.2z
	 M101.9,36.5L53.3,72.8c-0.2,0.1-0.2,0.2-0.2,0.4c0,0,0,0.1-0.1,0.1l-5.7,20l-3.9-23.7L101.9,36.5z M54.2,74.4l11.5,3.9L48.4,94.9
	L54.2,74.4z"/>
<path d="M82.6,83.2"/>
<path d="M19,61.8"/>
<path d="M109,31.3"/>
</svg>
