<?xml version="1.0" standalone="no"?><!DOCTYPE svg PUBLIC "-//W3C//DTD SVG 1.1//EN" "http://www.w3.org/Graphics/SVG/1.1/DTD/svg11.dtd"><svg xmlns:xlink="http://www.w3.org/1999/xlink" version="1.1" class="highcharts-root" style="font-family:&quot;Lucida Grande&quot;, &quot;Lucida Sans Unicode&quot;, Arial, Helvetica, sans-serif;font-size:12px;" xmlns="http://www.w3.org/2000/svg" width="600" height="400" viewBox="0 0 600 400"><desc>Created with Highcharts 6.0.2</desc><defs><clipPath id="highcharts-fudyr8d-6"><rect x="0" y="0" width="600" height="400" fill="none"></rect></clipPath></defs><rect fill="transparent" class="highcharts-background" x="0" y="0" width="600" height="400" rx="0" ry="0"></rect><rect fill="none" class="highcharts-plot-background" x="0" y="0" width="600" height="400"></rect><rect fill="none" class="highcharts-plot-border" x="0" y="0" width="600" height="400"></rect><g class="highcharts-series-group"><g class="highcharts-series highcharts-series-0 highcharts-pie-series " transform="translate(0,0) scale(1 1)"><path fill="transparent" d="M 299.9613020912979 10.000003940863564 A 190 190 0 0 1 421.20509723096063 346.31925507339554 L 348.48203889238425 258.5277020293582 A 76 76 0 0 0 299.98452083651915 124.00000157634543 Z" transform="translate(0,0)" stroke="#ffffff" stroke-width="1" stroke-linejoin="round" class="highcharts-point highcharts-color-0"></path><path fill="transparent" d="M 421.0587173977302 346.4403869908042 A 190 190 0 0 1 113.40459391924972 235.80718404957173 L 225.3618375676999 214.3228736198287 A 76 76 0 0 0 348.4234869590921 258.57615479632165 Z" transform="translate(0,0)" stroke="#ffffff" stroke-width="1" stroke-linejoin="round" class="highcharts-point highcharts-color-0"></path><path fill="transparent" d="M 113.3688800388633 235.6205707709997 A 190 190 0 0 1 127.96851099887036 119.34538579811931 L 231.18740439954814 167.7381543192477 A 76 76 0 0 0 225.34755201554532 214.2482283083999 Z" transform="translate(0,0)" stroke="#ffffff" stroke-width="1" stroke-linejoin="round" class="highcharts-point highcharts-color-0"></path><path fill="transparent" d="M 128.04925161536713 119.17339466509385 A 190 190 0 0 1 178.7082074282747 53.75260325483546 L 251.48328297130988 141.50104130193418 A 76 76 0 0 0 231.21970064614686 167.66935786603753 Z" transform="translate(0,0)" stroke="#ffffff" stroke-width="1" stroke-linejoin="round" class="highcharts-point highcharts-color-0"></path><path fill="transparent" d="M 178.85451544653657 53.63138460617128 A 190 190 0 0 1 208.34459092740457 33.568975284849046 L 263.33783637096184 133.42759011393963 A 76 76 0 0 0 251.54180617861462 141.45255384246852 Z" transform="translate(0,0)" stroke="#ffffff" stroke-width="1" stroke-linejoin="round" class="highcharts-point highcharts-color-0"></path><path fill="transparent" d="M 208.51106775208197 33.477403106557745 A 190 190 0 0 1 241.06460510500926 19.3715990532732 L 276.4258420420037 127.74863962130928 A 76 76 0 0 0 263.4044271008328 133.3909612426231 Z" transform="translate(0,0)" stroke="#ffffff" stroke-width="1" stroke-linejoin="round" class="highcharts-point highcharts-color-0"></path><path fill="transparent" d="M 241.24526294354632 19.312753982393673 A 190 190 0 0 1 299.7360938117664 10.000183280288894 L 299.8944375247066 124.00007331211556 A 76 76 0 0 0 276.49810517741855 127.72510159295747 Z" transform="translate(0,0)" stroke="#ffffff" stroke-width="1" stroke-linejoin="round" class="highcharts-point highcharts-color-0"></path></g><g class="highcharts-markers highcharts-series-0 highcharts-pie-series " transform="translate(0,0) scale(1 1)"></g></g><text x="300" text-anchor="middle" class="highcharts-title" style="color:#333333;font-size:18px;fill:#333333;" y="14"></text><text x="300" text-anchor="middle" class="highcharts-subtitle" style="color:#666666;fill:#666666;" y="14"></text><g class="highcharts-data-labels highcharts-series-0 highcharts-pie-series " visibility="visible" transform="translate(0,0) scale(1 1)"><g class="highcharts-label highcharts-data-label highcharts-data-label-color-0 " transform="translate(439,126)"><text x="5" style="font-size:16px;font-weight:light;color:#ffffff;fill:#ffffff;" y="20"><tspan x="5" y="20" class="highcharts-text-outline" fill="0" stroke="0" stroke-width="0" stroke-linejoin="round" style="">39%</tspan><tspan x="5" y="20">39%</tspan></text></g><g class="highcharts-label highcharts-data-label highcharts-data-label-color-0 " transform="translate(222,344)"><text x="5" style="font-size:16px;font-weight:light;color:#ffffff;fill:#ffffff;" y="20"><tspan x="5" y="20" class="highcharts-text-outline" fill="0" stroke="0" stroke-width="0" stroke-linejoin="round">33%</tspan><tspan x="5" y="20">33%</tspan></text></g><g class="highcharts-label highcharts-data-label highcharts-data-label-color-0 " transform="translate(111,163)"><text x="5" style="font-size:16px;font-weight:light;color:#ffffff;fill:#ffffff;" y="20"><tspan x="5" y="20" class="highcharts-text-outline" fill="0" stroke="0" stroke-width="0" stroke-linejoin="round">10%</tspan><tspan x="5" y="20">10%</tspan></text></g><g class="highcharts-label highcharts-data-label highcharts-data-label-color-0 " transform="translate(150,80)"><text x="5" style="font-size:16px;font-weight:light;color:#ffffff;fill:#ffffff;" y="20"><tspan x="5" y="20" class="highcharts-text-outline" fill="0" stroke="0" stroke-width="0" stroke-linejoin="round" style="">7%</tspan><tspan x="5" y="20">7%</tspan></text></g><g class="highcharts-label highcharts-data-label highcharts-data-label-color-0 " transform="translate(189,43)"><text x="5" style="font-size:16px;font-weight:light;color:#ffffff;fill:#ffffff;" y="20"><tspan x="5" y="20" class="highcharts-text-outline" fill="0" stroke="0" stroke-width="0" stroke-linejoin="round">3%</tspan><tspan x="5" y="20">3%</tspan></text></g><g class="highcharts-label highcharts-data-label highcharts-data-label-color-0 " transform="translate(217,28)"><text x="5" style="font-size:16px;font-weight:light;color:#ffffff;fill:#ffffff;" y="20"><tspan x="5" y="20" class="highcharts-text-outline" fill="0" stroke="0" stroke-width="0" stroke-linejoin="round">3%</tspan><tspan x="5" y="20">3%</tspan></text></g><g class="highcharts-label highcharts-data-label highcharts-data-label-color-0 " transform="translate(258,16)"><text x="5" style="font-size:16px;font-weight:light;color:#ffffff;fill:#ffffff;" y="20"><tspan x="5" y="20" class="highcharts-text-outline" fill="0" stroke="0" stroke-width="0" stroke-linejoin="round">5%</tspan><tspan x="5" y="20">5%</tspan></text></g></g><g class="highcharts-legend"><rect fill="none" class="highcharts-legend-box" rx="0" ry="0" x="0" y="0" width="8" height="8" visibility="hidden"></rect><g><g></g></g></g></svg>