<?xml version="1.0" standalone="no"?><!DOCTYPE svg PUBLIC "-//W3C//DTD SVG 1.1//EN" "http://www.w3.org/Graphics/SVG/1.1/DTD/svg11.dtd"><svg xmlns:xlink="http://www.w3.org/1999/xlink" version="1.1" class="highcharts-root" style="font-family:&quot;Lucida Grande&quot;, &quot;Lucida Sans Unicode&quot;, Arial, Helvetica, sans-serif;font-size:12px;" xmlns="http://www.w3.org/2000/svg" width="600" height="400" viewBox="0 0 600 400"><desc>Created with Highcharts 6.0.2</desc><defs><clipPath id="highcharts-935fs2w-6"><rect x="0" y="0" width="600" height="400" fill="none"></rect></clipPath></defs><rect fill="transparent" class="highcharts-background" x="0" y="0" width="600" height="400" rx="0" ry="0"></rect><rect fill="none" class="highcharts-plot-background" x="0" y="0" width="600" height="400"></rect><rect fill="none" class="highcharts-plot-border" x="0" y="0" width="600" height="400"></rect><g class="highcharts-series-group"><g class="highcharts-series highcharts-series-0 highcharts-pie-series " transform="translate(0,0) scale(1 1)"><path fill="transparent" d="M 299.9613020912979 10.000003940863564 A 190 190 0 0 1 411.59891306075644 46.228472714687115 L 300 200 A 0 0 0 0 0 300 200 Z" transform="translate(0,0)" stroke="#ffffff" stroke-width="1" stroke-linejoin="round" class="highcharts-point highcharts-color-0"></path><path fill="transparent" d="M 411.7526287629613 46.340148494905264 A 190 190 0 0 1 489.9999050000079 199.81000003166668 L 300 200 A 0 0 0 0 0 300 200 Z" transform="translate(0,0)" stroke="#ffffff" stroke-width="1" stroke-linejoin="round" class="highcharts-point highcharts-color-0"></path><path fill="transparent" d="M 490 200 A 190 190 0 0 1 480.76868087174626 258.50370941990576 L 300 200 A 0 0 0 0 0 300 200 Z" transform="translate(0,0)" stroke="#ffffff" stroke-width="1" stroke-linejoin="round" class="highcharts-point highcharts-color-0"></path><path fill="transparent" d="M 480.71008678774405 258.68444881879714 A 190 190 0 0 1 411.9062327125466 353.54802206503786 L 300 200 A 0 0 0 0 0 300 200 Z" transform="translate(0,0)" stroke="#ffffff" stroke-width="1" stroke-linejoin="round" class="highcharts-point highcharts-color-0"></path><path fill="transparent" d="M 411.7526287629613 353.6598515050947 A 190 190 0 1 1 299.7360938117664 10.000183280288894 L 300 200 A 0 0 0 1 0 300 200 Z" transform="translate(0,0)" stroke="#ffffff" stroke-width="1" stroke-linejoin="round" class="highcharts-point highcharts-color-0"></path></g><g class="highcharts-markers highcharts-series-0 highcharts-pie-series " transform="translate(0,0) scale(1 1)"></g></g><text x="300" text-anchor="middle" class="highcharts-title" style="color:#333333;font-size:18px;fill:#333333;" y="14"></text><text x="300" text-anchor="middle" class="highcharts-subtitle" style="color:#666666;fill:#666666;" y="14"></text><g class="highcharts-data-labels highcharts-series-0 highcharts-pie-series " visibility="visible" transform="translate(0,0) scale(1 1)"><g class="highcharts-label highcharts-data-label highcharts-data-label-color-0 " transform="translate(318,60)"><text x="5" style="font-size:18px;font-weight:light;color:#ffffff;fill:#ffffff;" y="22"><tspan x="5" y="22" class="highcharts-text-outline" fill="0" stroke="0" stroke-width="0" stroke-linejoin="round" style="">10%</tspan><tspan x="5" y="22">10%</tspan></text></g><g class="highcharts-label highcharts-data-label highcharts-data-label-color-0 " transform="translate(393,125)"><text x="5" style="font-size:18px;font-weight:light;color:#ffffff;fill:#ffffff;" y="22"><tspan x="5" y="22" class="highcharts-text-outline" fill="0" stroke="0" stroke-width="0" stroke-linejoin="round">15%</tspan><tspan x="5" y="22">15%</tspan></text></g><g class="highcharts-label highcharts-data-label highcharts-data-label-color-0 " transform="translate(412,204)"><text x="5" style="font-size:18px;font-weight:light;color:#ffffff;fill:#ffffff;" y="22"><tspan x="5" y="22" class="highcharts-text-outline" fill="0" stroke="0" stroke-width="0" stroke-linejoin="round" style="">5%</tspan><tspan x="5" y="22">5%</tspan></text></g><g class="highcharts-label highcharts-data-label highcharts-data-label-color-0 " transform="translate(383,260)"><text x="5" style="font-size:18px;font-weight:light;color:#ffffff;fill:#ffffff;" y="22"><tspan x="5" y="22" class="highcharts-text-outline" fill="0" stroke="0" stroke-width="0" stroke-linejoin="round">10%</tspan><tspan x="5" y="22">10%</tspan></text></g><g class="highcharts-label highcharts-data-label highcharts-data-label-color-0 " transform="translate(154,224)"><text x="5" style="font-size:18px;font-weight:light;color:#ffffff;fill:#ffffff;" y="22"><tspan x="5" y="22" class="highcharts-text-outline" fill="0" stroke="0" stroke-width="0" stroke-linejoin="round">60%</tspan><tspan x="5" y="22">60%</tspan></text></g></g><g class="highcharts-legend"><rect fill="none" class="highcharts-legend-box" rx="0" ry="0" x="0" y="0" width="8" height="8" visibility="hidden"></rect><g><g></g></g></g></svg>