
<!-- Generator: Adobe Illustrator 21.1.0, SVG Export Plug-In . SVG Version: 6.00 Build 0)  -->
<svg version="1.1" id="Слой_1" xmlns="http://www.w3.org/2000/svg" xmlns:xlink="http://www.w3.org/1999/xlink" x="0px" y="0px" fill="#ffffff" viewBox="0 0 100 110" style="enable-background:new 0 0 100 125;" xml:space="preserve">
<path d="M51.7,85.5H22.8c-0.5,0-1-00.4-1-1v-69c0-0.6,0.4-1,1-1h28.9c1.1,0,2-0.9,2-2s-0.9-2-2-2H22.8c-2.8,0-5,2.2-5,5v69
	c0,2.8,2.2,5,5,5h28.9c1.1,0,2-0.9,2-2S52.8,85.5,51.7,85.5z M80.2,48h-39L55,34.3c0.8-0.8,0.8-2,0-2.8c-0.8-0.8-2-0.8-2.8,0
	L35,48.6c-0.4,0.4-0.6,0.9-0.6,1.4s0.2,1,0.6,1.4l17.1,17.1c0.4,0.4,0.9,0.6,1.4,0.6s1-0.2,1.4-0.6c0.8-0.8,0.8-2,0-2.8L41.2,52h39
	c1.1,0,2-0.9,2-2S81.3,48,80.2,48z"/>
</svg>
