<svg version="1.1" id="Слой_1" xmlns="http://www.w3.org/2000/svg" xmlns:xlink="http://www.w3.org/1999/xlink" x="0px" y="0px"
	 viewBox="0 0 512 512" style="enable-background:new 0 0 512 512;" xml:space="preserve">
<style type="text/css">
	.st0{fill:#FFFFFF;}
</style>
<g>
	<path class="st0" d="M510,317.5h-32.8v-24.6h-24.6V14.3h-16.4v278.6h-24.6v24.6H100.3v-24.6H75.7V14.3H59.4v278.6H34.8v24.6H2
		v163.9h49.2v16.4h16.4v-16.4h376.9v16.4h16.4v-16.4H510V317.5z M428.1,309.3h32.8v8.2h-32.8V309.3z M51.2,309.3H84v8.2H51.2V309.3z
		 M108.5,464.9v-49.2h295v49.2H108.5z M493.6,464.9h-73.7v-65.5H92.1v65.5H18.4V333.8h475.2V464.9z"/>
	<rect x="124.9" y="432.2" class="st0" width="147.5" height="16.4"/>
	<rect x="370.7" y="432.2" class="st0" width="16.4" height="16.4"/>
	<rect x="337.9" y="432.2" class="st0" width="16.4" height="16.4"/>
	<rect x="305.2" y="432.2" class="st0" width="16.4" height="16.4"/>
</g>
</svg>
